<svg width="38" height="39" viewBox="0 0 38 39" fill="none" xmlns="http://www.w3.org/2000/svg">
<circle cx="19" cy="19.6364" r="19" fill="black"/>
<path d="M25.6149 29.4176C25.292 29.4176 24.9691 29.3343 24.6774 29.1572L20.5003 26.678C20.0628 26.6676 19.6253 26.6364 19.2087 26.5739C18.9274 26.5322 18.6878 26.3446 18.5837 26.0738C18.4795 25.803 18.5316 25.5113 18.7191 25.2926C19.4066 24.4905 19.7607 23.5322 19.7607 22.5113C19.7607 19.9905 17.542 17.9384 14.8128 17.9384C13.792 17.9384 12.8128 18.2197 11.9899 18.7614C11.7607 18.9072 11.4795 18.928 11.2295 18.8134C10.9899 18.6988 10.8128 18.4696 10.7816 18.1988C10.7503 17.9071 10.7295 17.6155 10.7295 17.3134C10.7295 12.1468 15.2087 7.94885 20.7087 7.94885C26.2087 7.94885 30.6878 12.1468 30.6878 17.3134C30.6878 20.1468 29.3753 22.7509 27.0628 24.5322L27.417 27.3655C27.5003 28.0739 27.1878 28.7405 26.5941 29.126C26.3024 29.3135 25.9587 29.4176 25.6149 29.4176ZM20.6982 25.1051C20.8441 25.0947 20.9899 25.1364 21.1149 25.2197L25.4795 27.8134C25.5941 27.8864 25.6878 27.8551 25.7503 27.8134C25.8024 27.7822 25.8857 27.6989 25.8649 27.553L25.4587 24.2613C25.4274 23.9697 25.5524 23.6884 25.7816 23.5218C27.9066 22.0322 29.1253 19.7613 29.1253 17.2926C29.1253 12.9905 25.3545 9.4905 20.7087 9.4905C16.2399 9.4905 12.5732 12.7405 12.3024 16.8239C13.0837 16.5218 13.9274 16.3551 14.8024 16.3551C18.3962 16.3551 21.3128 19.1051 21.3128 22.4905C21.3232 23.4071 21.1045 24.2926 20.6982 25.1051Z" fill="white"/>
<path d="M11.7708 30.3343C11.5 30.3343 11.2396 30.2614 11 30.1052C10.5313 29.8031 10.2813 29.2823 10.3438 28.7302L10.5521 27.126C9.14584 25.9801 8.3125 24.2822 8.3125 22.501C8.3125 20.4697 9.37501 18.5739 11.1563 17.4385C12.2292 16.7406 13.5 16.3656 14.8229 16.3656C18.4167 16.3656 21.3333 19.1156 21.3333 22.501C21.3333 23.876 20.8333 25.2302 19.9167 26.3031C18.7396 27.7302 16.9792 28.5635 15.0417 28.626L12.5 30.1364C12.2708 30.2718 12.0208 30.3343 11.7708 30.3343ZM14.8125 17.9281C13.7917 17.9281 12.8125 18.2093 11.9896 18.751C10.6562 19.6052 9.86459 21.001 9.86459 22.501C9.86459 23.9489 10.5729 25.2718 11.8229 26.126C12.0625 26.2927 12.1875 26.5739 12.1563 26.8656L11.9271 28.6468L14.4167 27.1677C14.5417 27.0948 14.6771 27.053 14.8125 27.053C16.3438 27.053 17.7917 26.3968 18.7083 25.2823C19.3958 24.4698 19.7604 23.5114 19.7604 22.4905C19.7604 19.9801 17.5417 17.9281 14.8125 17.9281Z" fill="white"/>
</svg>
