<svg width="28" height="35" viewBox="0 0 28 35" fill="none" xmlns="http://www.w3.org/2000/svg">
<path d="M25.9076 9.28467C26.6043 10.9342 26.9997 12.7389 26.9997 14.66V19.9966C26.9997 27.3708 21.2001 33.3283 14.0637 33.3283C12.6138 33.3283 11.2016 33.0761 9.90234 32.6297M22.9328 4.95699C20.6167 2.70593 17.491 1.32812 14.0451 1.32812C6.88986 1.32812 1.09037 7.30508 1.09037 14.6598C1.09037 17.3184 0.770216 20.0158 1.33511 22.6356C1.86234 25.1001 3.04864 27.4288 4.72448 29.2723M16.1346 25.6821C15.4944 25.9344 14.7977 26.0702 14.0633 26.0702C10.8246 26.0702 8.18848 23.3534 8.18848 20.0156V15.3M11.4844 9.2068C12.2564 8.81869 13.1225 8.60522 14.0452 8.60522C17.2839 8.60522 19.9201 11.322 19.9201 14.6598V19.9964C19.9201 20.3263 19.9012 20.6756 19.8448 20.9861M14.0449 15.5332V18.5217" stroke="#F7FBFB" stroke-width="1.5" stroke-linecap="round" stroke-linejoin="round"/>
</svg>
