<svg width="37" height="30" viewBox="0 0 37 30" fill="none" xmlns="http://www.w3.org/2000/svg">
<g clip-path="url(#clip0_1523_240)">
<path d="M5.79845 16.8718C4.53171 13.9366 4.78127 11.0141 6.48269 8.25382C8.07985 5.66292 10.4624 3.86859 13.5874 2.70736C18.3167 0.948684 23.108 0.870028 27.8683 2.48206C30.8966 3.5073 33.2994 5.13229 35.0587 7.49265C37.809 11.187 37.6211 15.9555 34.5972 19.4595C32.3954 22.0099 29.6612 24.001 26.0001 24.8758C23.7892 25.4049 21.4762 25.5383 18.992 25.324C16.5439 27.4564 13.4773 28.4498 10.1642 29.1552C9.97495 29.1951 9.78891 29.2263 9.53269 29.2638C9.44808 29.2761 9.44808 29.2761 9.36569 29.2879C9.30644 29.2964 9.30644 29.2964 9.25016 29.3045C8.47453 29.4187 7.77686 29.1186 7.38648 28.4C7.00579 27.6943 7.1141 26.9434 7.6061 26.3401C7.96476 25.9016 8.21621 25.6105 8.4952 25.3231C9.3874 24.4073 10.0619 23.3005 10.4719 22.0878C9.95734 21.7344 9.67177 21.5304 9.35814 21.2846C7.72674 20.0165 6.53469 18.5809 5.79845 16.8718ZM19.0445 25.3281C19.0499 25.3274 19.0519 25.3254 19.0565 25.3216L19.0514 25.3259L19.0445 25.3281ZM18.992 25.324C18.9707 25.3222 18.9494 25.3203 18.9281 25.3184C18.9767 25.3226 19.0048 25.3257 19.0219 25.3273L18.992 25.324ZM9.75404 27.1777C12.7506 26.5396 15.5173 25.6898 17.7804 23.7658C18.144 23.4661 18.6206 23.2643 19.0999 23.3054C21.4083 23.5098 23.5295 23.3906 25.5395 22.9096C28.8203 22.1257 31.1861 20.3367 33.0898 18.1316C35.4948 15.3447 35.6409 11.6362 33.4607 8.7076C31.9609 6.69543 29.8976 5.30005 27.2327 4.39785C22.905 2.93229 18.5815 3.00326 14.2781 4.6036C11.5463 5.6187 9.52473 7.14116 8.1804 9.32192C6.82192 11.5258 6.63217 13.748 7.63204 16.0649C8.22298 17.4367 9.19886 18.6117 10.5793 19.6844C10.8586 19.9034 11.1217 20.091 11.6178 20.4316C11.7527 20.5242 11.7527 20.5242 11.8895 20.6182C12.0479 20.7275 12.0479 20.7275 12.2083 20.8397L12.7765 21.2391L12.6066 21.917C12.1502 23.738 11.2232 25.4034 9.92195 26.739C9.78016 26.8851 9.64185 27.0383 9.47994 27.2282C9.58369 27.2112 9.67098 27.1951 9.75404 27.1777Z" fill="black"/>
<path d="M14 9.32812H28V11.3281H14V9.32812Z" fill="black"/>
<path d="M14 15.3281H26V17.3281H14V15.3281Z" fill="black"/>
</g>
<defs>
<clipPath id="clip0_1523_240">
<rect width="37" height="29" fill="white" transform="translate(0 0.828125)"/>
</clipPath>
</defs>
</svg>
