<svg width="32" height="22" viewBox="0 0 32 22" fill="none" xmlns="http://www.w3.org/2000/svg">
<path d="M21.9796 10.9557L30.1813 3.61532V18.2122L21.9796 10.9557ZM11.4111 12.1987L14.2913 14.7742C14.7433 15.1697 15.3326 15.4088 15.9767 15.4088H15.9993H16.0167C16.662 15.4088 17.2514 15.1684 17.7087 14.77L17.7047 14.7728L20.5849 12.1974L29.3399 19.9429H2.66011L11.4111 12.1987ZM2.64811 1.87501H29.3559L16.5274 13.3525C16.3831 13.47 16.2046 13.5339 16.0207 13.5338H16.002H15.9847C15.8001 13.5341 15.621 13.4697 15.4766 13.3511L15.478 13.3525L2.64811 1.87501ZM1.82008 3.61394L10.0204 10.9543L1.82008 18.2067V3.61394ZM30.6213 0.261069C30.3013 0.0962412 29.9252 9.15527e-05 29.5266 9.15527e-05H2.47877C2.0923 0.000186652 1.71114 0.0928219 1.36539 0.270684L1.38006 0.263816C0.966138 0.474124 0.617556 0.799478 0.373688 1.20312C0.12982 1.60677 0.000383147 2.07262 0 2.54806L0 19.2671C0.000705901 19.9437 0.261947 20.5924 0.726404 21.0709C1.19086 21.5493 1.8206 21.8185 2.47744 21.8192H29.5226C30.1794 21.8185 30.8091 21.5493 31.2736 21.0709C31.7381 20.5924 31.9993 19.9437 32 19.2671V2.54806C32 1.54947 31.4413 0.684127 30.6279 0.267937L30.6133 0.261069H30.6213Z" fill="#1F271B"/>
</svg>
