<svg width="29" height="34" viewBox="0 0 29 34" fill="none" xmlns="http://www.w3.org/2000/svg">
<path d="M26.4076 8.95654C27.1043 10.606 27.4997 12.4108 27.4997 14.3319V19.6685C27.4997 27.0427 21.7001 33.0002 14.5637 33.0002C13.1138 33.0002 11.7016 32.7479 10.4023 32.3016M23.4328 4.62887C21.1167 2.3778 17.991 1 14.5451 1C7.38986 1 1.59037 6.97696 1.59037 14.3317C1.59037 16.9903 1.27022 19.6877 1.83511 22.3075C2.36234 24.772 3.54864 27.1007 5.22448 28.9442M16.6346 25.354C15.9944 25.6062 15.2977 25.7421 14.5633 25.7421C11.3246 25.7421 8.68848 23.0253 8.68848 19.6875V14.9719M11.9844 8.87868C12.7564 8.49056 13.6225 8.2771 14.5452 8.2771C17.7839 8.2771 20.4201 10.9939 20.4201 14.3317V19.6682C20.4201 19.9981 20.4012 20.3474 20.3448 20.6579M14.5449 15.2051V18.1936" stroke="#F7FBFB" stroke-width="1.5" stroke-linecap="round" stroke-linejoin="round"/>
</svg>
