<svg width="28" height="34" viewBox="0 0 28 34" fill="none" xmlns="http://www.w3.org/2000/svg">
<path d="M25.9076 8.95654C26.6043 10.606 26.9997 12.4108 26.9997 14.3319V19.6685C26.9997 27.0427 21.2001 33.0002 14.0637 33.0002C12.6138 33.0002 11.2016 32.7479 9.90234 32.3016" stroke="black" stroke-width="1.5" stroke-linecap="round" stroke-linejoin="round"/>
<path d="M22.9328 4.62887C20.6167 2.3778 17.491 1 14.0451 1C6.88986 1 1.09037 6.97696 1.09037 14.3317C1.09037 16.9903 0.770216 19.6877 1.33511 22.3075C1.86234 24.772 3.04864 27.1007 4.72448 28.9442" stroke="black" stroke-width="1.5" stroke-linecap="round" stroke-linejoin="round"/>
<path d="M16.1356 25.3541C15.4954 25.6064 14.7987 25.7422 14.0643 25.7422C10.8256 25.7422 8.18945 23.0254 8.18945 19.6876V14.972" stroke="black" stroke-width="1.5" stroke-linecap="round" stroke-linejoin="round"/>
<path d="M11.4844 8.87868C12.2564 8.49056 13.1225 8.2771 14.0452 8.2771C17.2839 8.2771 19.9201 10.9939 19.9201 14.3317V19.6682C19.9201 19.9981 19.9012 20.3474 19.8448 20.6579" stroke="black" stroke-width="1.5" stroke-linecap="round" stroke-linejoin="round"/>
<path d="M14.0449 15.2051V18.1936" stroke="black" stroke-width="1.5" stroke-linecap="round" stroke-linejoin="round"/>
</svg>
