<svg width="38" height="30" viewBox="0 0 38 30" fill="none" xmlns="http://www.w3.org/2000/svg">
<g clip-path="url(#clip0_2512_1843)">
<path d="M6.29845 16.0437C5.03171 13.1085 5.28127 10.186 6.98269 7.42569C8.57985 4.8348 10.9624 3.04047 14.0874 1.87924C18.8167 0.120559 23.608 0.0419034 28.3683 1.65393C31.3966 2.67918 33.7994 4.30416 35.5587 6.66452C38.309 10.3588 38.1211 15.1273 35.0972 18.6314C32.8954 21.1818 30.1612 23.1729 26.5001 24.0477C24.2892 24.5767 21.9762 24.7102 19.492 24.4959C17.0439 26.6283 13.9773 27.6217 10.6642 28.3271C10.4749 28.367 10.2889 28.3982 10.0327 28.4357C9.94808 28.448 9.94808 28.448 9.86569 28.4598C9.80644 28.4683 9.80644 28.4683 9.75016 28.4764C8.97453 28.5906 8.27686 28.2905 7.88648 27.5718C7.50579 26.8662 7.6141 26.1153 8.1061 25.512C8.46476 25.0734 8.71621 24.7824 8.9952 24.4949C9.8874 23.5791 10.5619 22.4724 10.9719 21.2597C10.4573 20.9062 10.1718 20.7023 9.85814 20.4564C8.22674 19.1884 7.03469 17.7528 6.29845 16.0437ZM19.5445 24.5C19.5499 24.4993 19.5519 24.4972 19.5565 24.4934L19.5514 24.4977L19.5445 24.5ZM19.492 24.4959C19.4707 24.4941 19.4494 24.4922 19.4281 24.4903C19.4767 24.4945 19.5048 24.4976 19.5219 24.4991L19.492 24.4959ZM10.254 26.3495C13.2506 25.7115 16.0173 24.8617 18.2804 22.9376C18.644 22.638 19.1206 22.4362 19.5999 22.4773C21.9083 22.6817 24.0295 22.5624 26.0395 22.0815C29.3203 21.2976 31.6861 19.5086 33.5898 17.3034C35.9948 14.5166 36.1409 10.8081 33.9607 7.87947C32.4609 5.8673 30.3976 4.47193 27.7327 3.56973C23.405 2.10416 19.0815 2.17514 14.7781 3.77547C12.0463 4.79058 10.0247 6.31303 8.6804 8.49379C7.32192 10.6977 7.13217 12.9199 8.13204 15.2368C8.72298 16.6086 9.69886 17.7836 11.0793 18.8562C11.3586 19.0753 11.6217 19.2629 12.1178 19.6035C12.2527 19.696 12.2527 19.696 12.3895 19.7901C12.5479 19.8994 12.5479 19.8994 12.7083 20.0116L13.2765 20.411L13.1066 21.0889C12.6502 22.9099 11.7232 24.5753 10.4219 25.9109C10.2802 26.057 10.1418 26.2102 9.97994 26.4001C10.0837 26.3831 10.171 26.367 10.254 26.3495Z" fill="#1F271B"/>
<path d="M14.5 8.5H28.5V10.5H14.5V8.5Z" fill="#1F271B"/>
<path d="M14.5 14.5H26.5V16.5H14.5V14.5Z" fill="#1F271B"/>
</g>
<defs>
<clipPath id="clip0_2512_1843">
<rect width="37" height="30" fill="white" transform="translate(0.5)"/>
</clipPath>
</defs>
</svg>
