<svg width="41" height="41" viewBox="0 0 41 41" fill="none" xmlns="http://www.w3.org/2000/svg">
<path d="M20.2135 5.22656C14.0635 5.22656 9.04688 10.2432 9.04688 16.3932C9.04688 24.0266 19.0469 35.2599 19.4635 35.7266C19.8635 36.1766 20.5635 36.1766 20.9635 35.7266C21.3969 35.2599 31.3802 24.0266 31.3802 16.3932C31.3802 10.2432 26.3635 5.22656 20.2135 5.22656Z" stroke="black" stroke-width="1.5" stroke-linecap="round" stroke-linejoin="round"/>
<path d="M20.8558 20.285C23.0103 19.9421 24.4788 17.9175 24.1359 15.763C23.7929 13.6085 21.7684 12.14 19.6139 12.4829C17.4594 12.8259 15.9909 14.8504 16.3338 17.0049C16.6768 19.1594 18.7013 20.6279 20.8558 20.285Z" stroke="black" stroke-width="1.5" stroke-linecap="round" stroke-linejoin="round"/>
</svg>
