<svg width="29" height="35" viewBox="0 0 29 35" fill="none" xmlns="http://www.w3.org/2000/svg">
<path d="M26.4076 9.52783C27.1043 11.1773 27.4997 12.982 27.4997 14.9032V20.2398C27.4997 27.6139 21.7001 33.5715 14.5637 33.5715C13.1138 33.5715 11.7016 33.3192 10.4023 32.8729" stroke="black" stroke-width="1.5" stroke-linecap="round" stroke-linejoin="round"/>
<path d="M23.4328 5.20015C21.1167 2.94909 17.991 1.57129 14.5451 1.57129C7.38986 1.57129 1.59037 7.54824 1.59037 14.903C1.59037 17.5616 1.27022 20.259 1.83511 22.8787C2.36234 25.3433 3.54864 27.672 5.22448 29.5155" stroke="black" stroke-width="1.5" stroke-linecap="round" stroke-linejoin="round"/>
<path d="M16.6346 25.9253C15.9944 26.1775 15.2977 26.3134 14.5633 26.3134C11.3246 26.3134 8.68848 23.5966 8.68848 20.2588V15.5432" stroke="black" stroke-width="1.5" stroke-linecap="round" stroke-linejoin="round"/>
<path d="M11.9844 9.44997C12.7564 9.06185 13.6225 8.84839 14.5452 8.84839C17.7839 8.84839 20.4201 11.5652 20.4201 14.903V20.2395C20.4201 20.5694 20.4012 20.9187 20.3448 21.2292" stroke="black" stroke-width="1.5" stroke-linecap="round" stroke-linejoin="round"/>
<path d="M14.5449 15.7764V18.7648" stroke="black" stroke-width="1.5" stroke-linecap="round" stroke-linejoin="round"/>
</svg>
