<svg width="36" height="36" viewBox="0 0 36 36" fill="none" xmlns="http://www.w3.org/2000/svg">
<path d="M23.9796 17.9556L32.1813 10.6152V25.2121L23.9796 17.9556ZM13.4111 19.1986L16.2913 21.7741C16.7433 22.1697 17.3326 22.4087 17.9767 22.4087H17.9993H18.0167C18.662 22.4087 19.2514 22.1683 19.7087 21.77L19.7047 21.7727L22.5849 19.1973L31.3399 26.9428H4.66011L13.4111 19.1986ZM4.64811 8.87492H31.3559L18.5274 20.3524C18.3831 20.47 18.2046 20.5338 18.0207 20.5337H18.002H17.9847C17.8001 20.534 17.621 20.4696 17.4766 20.3511L17.478 20.3524L4.64811 8.87492ZM3.82008 10.6139L12.0204 17.9542L3.82008 25.2066V10.6139ZM32.6213 7.26098C32.3013 7.09615 31.9252 7 31.5266 7H4.47877C4.0923 7.0001 3.71114 7.09273 3.36539 7.27059L3.38006 7.26372C2.96614 7.47403 2.61756 7.79939 2.37369 8.20303C2.12982 8.60668 2.00038 9.07253 2 9.54796V26.267C2.00071 26.9436 2.26195 27.5923 2.7264 28.0708C3.19086 28.5492 3.8206 28.8184 4.47744 28.8191H31.5226C32.1794 28.8184 32.8091 28.5492 33.2736 28.0708C33.7381 27.5923 33.9993 26.9436 34 26.267V9.54796C34 8.54938 33.4413 7.68404 32.6279 7.26785L32.6133 7.26098H32.6213Z" fill="#1F271B"/>
</svg>
