<svg width="118" height="44" viewBox="0 0 118 44" fill="none" xmlns="http://www.w3.org/2000/svg">
<g clip-path="url(#clip0_3090_11109)">
<circle cx="12.8566" cy="9.07586" r="5.29412" fill="#F28123"/>
<path d="M20.4202 0L38.1046 30.6303H2.73578L20.4202 0Z" fill="#373E34"/>
<path d="M25.3381 24.3906L18.9095 26.0923L38.1952 34.3576L5.86328 38.3822L21.3675 44.2436" stroke="#373E34" stroke-width="1.13445"/>
<path d="M17.9604 10.9663L30.8962 33.3718H5.02461L17.9604 10.9663Z" fill="#6A994E"/>
</g>
<path d="M52.592 18.24C51.504 18.24 50.56 17.9787 49.76 17.456C48.96 16.9333 48.3893 16.1653 48.048 15.152H49.68C50.2133 16.3253 51.264 16.912 52.832 16.912C53.9947 16.912 55.0347 16.5013 55.952 15.68C56.8053 14.912 57.4027 13.9413 57.744 12.768H52.128L52.336 11.488H57.936C57.936 10.3573 57.6107 9.424 56.96 8.688C56.3093 7.952 55.424 7.584 54.304 7.584C52.8427 7.584 51.5947 8.20267 50.56 9.44H48.96C50.2933 7.31733 52.1333 6.256 54.48 6.256C55.92 6.256 57.0933 6.71467 58 7.632C58.9173 8.54933 59.376 9.728 59.376 11.168C59.376 13.0453 58.72 14.688 57.408 16.096C56.064 17.5253 54.4587 18.24 52.592 18.24ZM67.6529 9.792L63.2849 13.696L66.4849 18H64.9009L61.8929 13.776L61.2209 18H60.0049L61.3169 9.792H62.5329L61.9089 13.696L66.1169 9.792H67.6529ZM71.7808 9.552C72.8261 9.552 73.6954 9.89333 74.3888 10.576C75.0821 11.2587 75.4288 12.1227 75.4288 13.168C75.4288 14.48 74.9274 15.648 73.9248 16.672C72.9221 17.696 71.7648 18.208 70.4528 18.208C69.4074 18.208 68.5434 17.8667 67.8608 17.184C67.1781 16.5013 66.8368 15.6373 66.8368 14.592C66.8368 13.2907 67.3328 12.128 68.3248 11.104C69.3274 10.0693 70.4794 9.552 71.7808 9.552ZM74.1808 13.296C74.1808 12.528 73.9461 11.9147 73.4768 11.456C73.0181 10.9973 72.3994 10.768 71.6208 10.768C70.6288 10.768 69.7914 11.1307 69.1088 11.856C68.4368 12.5813 68.1008 13.4507 68.1008 14.464C68.1008 15.2213 68.3301 15.8347 68.7888 16.304C69.2581 16.7733 69.8714 17.008 70.6288 17.008C71.6314 17.008 72.4741 16.6453 73.1568 15.92C73.8394 15.184 74.1808 14.3093 74.1808 13.296ZM76.1274 9.792H81.5834L81.4074 10.912H79.2954L78.1594 18H76.9274L78.0634 10.912H75.9514L76.1274 9.792ZM85.6869 18.208C84.5029 18.208 83.5802 17.7333 82.9189 16.784L82.1669 21.568H80.9509L82.8069 9.776H84.0229L83.8309 11.072C84.8335 10.0907 85.9215 9.6 87.0949 9.6C88.1509 9.6 89.0149 9.936 89.6869 10.608C90.3589 11.2693 90.6949 12.128 90.6949 13.184C90.6949 14.528 90.1935 15.7013 89.1909 16.704C88.1989 17.7067 87.0309 18.208 85.6869 18.208ZM89.3989 13.36C89.3989 12.6027 89.1589 11.9787 88.6789 11.488C88.1989 10.9973 87.5802 10.752 86.8229 10.752C85.9162 10.752 85.1002 11.1253 84.3749 11.872C83.6602 12.6187 83.3029 13.4453 83.3029 14.352C83.3029 15.0773 83.5429 15.7067 84.0229 16.24C84.5029 16.7733 85.1002 17.04 85.8149 17.04C86.7642 17.04 87.5962 16.6667 88.3109 15.92C89.0362 15.1733 89.3989 14.32 89.3989 13.36ZM95.8745 9.552C96.9198 9.552 97.7892 9.89333 98.4825 10.576C99.1758 11.2587 99.5225 12.1227 99.5225 13.168C99.5225 14.48 99.0212 15.648 98.0185 16.672C97.0158 17.696 95.8585 18.208 94.5465 18.208C93.5012 18.208 92.6372 17.8667 91.9545 17.184C91.2718 16.5013 90.9305 15.6373 90.9305 14.592C90.9305 13.2907 91.4265 12.128 92.4185 11.104C93.4212 10.0693 94.5732 9.552 95.8745 9.552ZM98.2745 13.296C98.2745 12.528 98.0398 11.9147 97.5705 11.456C97.1118 10.9973 96.4932 10.768 95.7145 10.768C94.7225 10.768 93.8852 11.1307 93.2025 11.856C92.5305 12.5813 92.1945 13.4507 92.1945 14.464C92.1945 15.2213 92.4238 15.8347 92.8825 16.304C93.3518 16.7733 93.9652 17.008 94.7225 17.008C95.7252 17.008 96.5678 16.6453 97.2505 15.92C97.9332 15.184 98.2745 14.3093 98.2745 13.296ZM106.547 18H105.331L106.451 10.928H102.435L101.315 18H100.099L101.411 9.792H107.859L106.547 18ZM115.839 18H114.591L115.903 9.792H117.151L115.839 18ZM108.287 18L109.599 9.792H110.815L110.287 13.088C111.652 13.088 112.489 13.1307 112.799 13.216C113.695 13.4507 114.143 14.0533 114.143 15.024C114.143 15.9093 113.844 16.6293 113.247 17.184C112.66 17.728 111.919 18 111.023 18H108.287ZM110.111 14.224L109.695 16.864H111.103C111.636 16.864 112.068 16.7307 112.399 16.464C112.729 16.1973 112.895 15.8027 112.895 15.28C112.895 14.576 112.441 14.224 111.535 14.224H110.111ZM50.272 32.216L49.52 37H48.16L49.984 25.48H52.944C53.9467 25.48 54.7413 25.6667 55.328 26.04C56.0427 26.488 56.4 27.1813 56.4 28.12C56.4 29.4107 55.952 30.4293 55.056 31.176C54.2347 31.8693 53.168 32.216 51.856 32.216H50.272ZM54.896 28.888H54.912C54.944 28.7173 54.96 28.5573 54.96 28.408C54.96 27.2773 54.1973 26.712 52.672 26.712H51.136L50.464 30.984H51.936C53.6853 30.984 54.672 30.2853 54.896 28.888ZM60.9683 28.552C62.0136 28.552 62.8829 28.8933 63.5763 29.576C64.2696 30.2587 64.6163 31.1227 64.6163 32.168C64.6163 33.48 64.1149 34.648 63.1123 35.672C62.1096 36.696 60.9523 37.208 59.6403 37.208C58.5949 37.208 57.7309 36.8667 57.0483 36.184C56.3656 35.5013 56.0243 34.6373 56.0243 33.592C56.0243 32.2907 56.5203 31.128 57.5123 30.104C58.5149 29.0693 59.6669 28.552 60.9683 28.552ZM63.3683 32.296C63.3683 31.528 63.1336 30.9147 62.6643 30.456C62.2056 29.9973 61.5869 29.768 60.8083 29.768C59.8163 29.768 58.9789 30.1307 58.2963 30.856C57.6243 31.5813 57.2883 32.4507 57.2883 33.464C57.2883 34.2213 57.5176 34.8347 57.9763 35.304C58.4456 35.7733 59.0589 36.008 59.8163 36.008C60.8189 36.008 61.6616 35.6453 62.3443 34.92C63.0269 34.184 63.3683 33.3093 63.3683 32.296ZM73.2724 34.312C72.835 35.1973 72.243 35.896 71.4964 36.408C70.707 36.9413 69.8377 37.208 68.8884 37.208C67.843 37.208 66.9897 36.8773 66.3284 36.216C65.667 35.544 65.3364 34.6853 65.3364 33.64C65.3364 32.296 65.827 31.1173 66.8084 30.104C67.8004 29.0907 68.963 28.584 70.2964 28.584C71.2137 28.584 71.9657 28.824 72.5524 29.304C73.1497 29.784 73.5337 30.472 73.7044 31.368H72.3924C72.0937 30.3013 71.3097 29.768 70.0404 29.768C69.059 29.768 68.2377 30.1467 67.5764 30.904C66.947 31.6187 66.6324 32.4773 66.6324 33.48C66.6324 34.2373 66.851 34.856 67.2884 35.336C67.7364 35.8053 68.3337 36.04 69.0804 36.04C69.6884 36.04 70.2484 35.8853 70.7604 35.576C71.2724 35.2667 71.6724 34.8453 71.9604 34.312H73.2724ZM82.1318 34.312C81.6944 35.1973 81.1024 35.896 80.3558 36.408C79.5664 36.9413 78.6971 37.208 77.7478 37.208C76.7024 37.208 75.8491 36.8773 75.1878 36.216C74.5264 35.544 74.1958 34.6853 74.1958 33.64C74.1958 32.296 74.6864 31.1173 75.6678 30.104C76.6598 29.0907 77.8224 28.584 79.1558 28.584C80.0731 28.584 80.8251 28.824 81.4118 29.304C82.0091 29.784 82.3931 30.472 82.5638 31.368H81.2518C80.9531 30.3013 80.1691 29.768 78.8998 29.768C77.9184 29.768 77.0971 30.1467 76.4358 30.904C75.8064 31.6187 75.4918 32.4773 75.4918 33.48C75.4918 34.2373 75.7104 34.856 76.1478 35.336C76.5958 35.8053 77.1931 36.04 77.9398 36.04C78.5478 36.04 79.1078 35.8853 79.6198 35.576C80.1318 35.2667 80.5318 34.8453 80.8198 34.312H82.1318ZM89.8711 37H88.6391L89.6631 30.584L84.1751 37H82.8951L84.2071 28.792H85.4391L84.4151 35.208L89.9191 28.792H91.1831L89.8711 37ZM98.543 37H97.311L98.335 30.584L92.847 37H91.567L92.879 28.792H94.111L93.087 35.208L98.591 28.792H99.855L98.543 37Z" fill="#1F271B"/>
<defs>
<clipPath id="clip0_3090_11109">
<rect width="40" height="44" fill="white"/>
</clipPath>
</defs>
</svg>
