<svg width="80" height="80" viewBox="0 0 80 80" fill="none" xmlns="http://www.w3.org/2000/svg">
<path fill-rule="evenodd" clip-rule="evenodd" d="M26.4327 25.8938L20.2547 30.0598C20.0948 30.1664 20 30.3461 20 30.5396V38.1056C20 38.4235 20.2587 38.6822 20.5785 38.6822C20.693 38.6822 20.8056 38.6486 20.9003 38.5834L27.0783 34.4174C27.2383 34.3108 27.333 34.1311 27.333 33.9376V26.3716C27.333 26.0537 27.0744 25.7951 26.7545 25.7951C26.64 25.7951 26.5275 25.8286 26.4327 25.8938ZM29.5562 24.0931V50.7558C29.5562 51.0737 29.8149 51.3323 30.1328 51.3323C30.2493 51.3323 30.3598 51.2988 30.4566 51.2336L38.6347 45.719C38.7926 45.6104 38.8894 45.4308 38.8894 45.2393V18.5785C38.8894 18.2587 38.6307 18 38.3109 18C38.1964 18 38.0838 18.0336 37.9871 18.0987L29.8109 23.6153C29.651 23.7219 29.5562 23.9016 29.5562 24.0931ZM41.1106 24.0931V50.7558C41.1106 51.0737 41.3693 51.3323 41.6891 51.3323C41.8036 51.3323 41.9162 51.2988 42.011 51.2336L50.189 45.719C50.349 45.6104 50.4438 45.4308 50.4438 45.2393V18.5785C50.4438 18.2587 50.1851 18 49.8652 18C49.7507 18 49.6382 18.0336 49.5434 18.0987L41.3653 23.6153C41.2054 23.7219 41.1106 23.9016 41.1106 24.0931ZM59.0977 25.8938L52.9217 30.0598C52.7617 30.1664 52.667 30.3461 52.667 30.5396V38.1056C52.667 38.4235 52.9256 38.6822 53.2435 38.6822C53.36 38.6822 53.4725 38.6486 53.5673 38.5834L59.7453 34.4174C59.9033 34.3108 60 34.1311 60 33.9376V26.3716C60 26.0537 59.7413 25.7951 59.4215 25.7951C59.307 25.7951 59.1944 25.8286 59.0977 25.8938Z" fill="#B5C5FC"/>
<path fill-rule="evenodd" clip-rule="evenodd" d="M20 57.1H20.9597C21.576 57.1 22.0798 57.6037 22.0798 58.2197V61.9H20.7997V58.2197H20V57.1ZM55.04 57.1V58.2197H56.8799V61.9H58.16V58.2197C58.16 57.6037 57.6559 57.1 57.0399 57.1H55.04ZM47.2 57.1H47.3601C47.976 57.1 48.4798 57.6037 48.4798 58.2197V61.9H47.2V57.1ZM41.1199 58.9798C41.1199 60.0138 40.274 60.8597 39.24 60.8597H37.6V61.9H36.3199V57.1H39.24C40.274 57.1 41.1199 57.9459 41.1199 58.9798ZM46.56 58.9798C46.56 59.674 46.1783 60.2836 45.6149 60.6092L46.3601 61.9H44.882L44.2815 60.8597H43.0401V61.9H41.76V57.1H44.6801C45.7141 57.1 46.56 57.9459 46.56 58.9798ZM45.2799 58.9798C45.2799 59.3978 44.9381 59.74 44.5201 59.74H43.0401V58.2197H44.5201C44.9381 58.2197 45.2799 58.5618 45.2799 58.9798ZM39.8398 58.9798C39.8398 59.3978 39.498 59.74 39.08 59.74H37.6V58.2197H39.08C39.498 58.2197 39.8398 58.5618 39.8398 58.9798ZM53.1198 61.9L50.72 59.0332V61.9H49.4399V57.1H50.72L53.1198 59.9664V57.1H54.3999V61.9H53.1198ZM60 57.1H58.16C58.16 57.7159 58.6638 58.2197 59.2801 58.2197H60V57.1ZM27.6799 57.1V58.2197H25.8399V61.9H24.5598V58.2197C24.5598 57.6037 25.064 57.1 25.6799 57.1H27.6799ZM22.7198 57.1H24.5598C24.5598 57.7159 24.0561 58.2197 23.4397 58.2197H22.7198V57.1ZM35.4171 57.7586L34.8094 58.6894C34.3013 58.3161 33.6818 58.1292 32.9513 58.1292C32.295 58.1292 31.9667 58.2584 31.9667 58.5172C31.9667 58.6092 32.0054 58.6709 32.0825 58.7025C32.1595 58.7341 32.2836 58.7613 32.4546 58.7843L33.8331 58.9395C34.9576 59.0774 35.5198 59.5689 35.5198 60.4136C35.5198 60.9367 35.2903 61.3318 34.8308 61.5989C34.3713 61.8664 33.7675 62 33.02 62C32.5175 62 32.071 61.9383 31.6799 61.8147C31.2891 61.691 30.9023 61.4828 30.5198 61.1896L31.1105 60.207C31.7557 60.6665 32.429 60.8964 33.131 60.8964C33.4736 60.8964 33.7533 60.8577 33.9702 60.7799C34.1871 60.7025 34.2958 60.5863 34.2958 60.431C34.2958 60.339 34.2741 60.273 34.2314 60.2327C34.1887 60.1924 34.0959 60.1667 33.9532 60.1552L32.3262 59.9656C31.8011 59.9024 31.4033 59.757 31.1319 59.5302C30.8608 59.303 30.7253 58.9684 30.7253 58.5259C30.7253 58.0257 30.9335 57.6464 31.3503 57.388C31.7672 57.1292 32.3006 57 32.9513 57C33.9445 57 34.7663 57.2529 35.4171 57.7586Z" fill="#B5C5FC"/>
</svg>
