<svg width="41" height="40" viewBox="0 0 41 40" fill="none" xmlns="http://www.w3.org/2000/svg">
<path d="M31.75 4.25H11.5C10.9033 4.25 10.331 4.48705 9.90901 4.90901C9.48705 5.33097 9.25 5.90326 9.25 6.5V11H7V13.25H9.25V18.875H7V21.125H9.25V26.75H7V29H9.25V33.5C9.25 34.0967 9.48705 34.669 9.90901 35.091C10.331 35.5129 10.9033 35.75 11.5 35.75H31.75C32.3467 35.75 32.919 35.5129 33.341 35.091C33.7629 34.669 34 34.0967 34 33.5V6.5C34 5.90326 33.7629 5.33097 33.341 4.90901C32.919 4.48705 32.3467 4.25 31.75 4.25ZM31.75 33.5H11.5V29H13.75V26.75H11.5V21.125H13.75V18.875H11.5V13.25H13.75V11H11.5V6.5H31.75V33.5Z" fill="#F7FBFB"/>
<path d="M18.25 11H27.25V13.25H18.25V11ZM18.25 18.875H27.25V21.125H18.25V18.875ZM18.25 26.75H27.25V29H18.25V26.75Z" fill="#F7FBFB"/>
</svg>
