<svg width="40" height="40" viewBox="0 0 40 40" fill="none" xmlns="http://www.w3.org/2000/svg">
<g clip-path="url(#clip0_3186_11584)">
<path d="M31.25 4.25H11C10.4033 4.25 9.83097 4.48705 9.40901 4.90901C8.98705 5.33097 8.75 5.90326 8.75 6.5V11H6.5V13.25H8.75V18.875H6.5V21.125H8.75V26.75H6.5V29H8.75V33.5C8.75 34.0967 8.98705 34.669 9.40901 35.091C9.83097 35.5129 10.4033 35.75 11 35.75H31.25C31.8467 35.75 32.419 35.5129 32.841 35.091C33.2629 34.669 33.5 34.0967 33.5 33.5V6.5C33.5 5.90326 33.2629 5.33097 32.841 4.90901C32.419 4.48705 31.8467 4.25 31.25 4.25ZM31.25 33.5H11V29H13.25V26.75H11V21.125H13.25V18.875H11V13.25H13.25V11H11V6.5H31.25V33.5Z" fill="#1F271B"/>
<path d="M17.75 11H26.75V13.25H17.75V11ZM17.75 18.875H26.75V21.125H17.75V18.875ZM17.75 26.75H26.75V29H17.75V26.75Z" fill="#1F271B"/>
</g>
<defs>
<clipPath id="clip0_3186_11584">
<rect width="28" height="32" fill="white" transform="translate(6 4)"/>
</clipPath>
</defs>
</svg>
