<svg width="28" height="28" viewBox="0 0 28 28" fill="none" xmlns="http://www.w3.org/2000/svg">
<path d="M6.32061 12.4218C5.52186 12.4218 4.71186 12.1293 4.09311 11.5331C2.02311 9.56434 1.19061 7.41559 1.67436 5.31184C2.24811 2.83684 4.41936 1.73434 6.32061 1.73434C8.22186 1.73434 10.4044 2.84809 10.9669 5.31184C11.4506 7.41559 10.6069 9.56434 8.54811 11.5331C7.92936 12.1293 7.13061 12.4218 6.32061 12.4218ZM3.31686 5.69434C2.88936 7.57309 4.13811 9.23809 5.26311 10.3068C5.85936 10.8806 6.79311 10.8693 7.38936 10.3068C8.51436 9.23809 9.76311 7.57309 9.32436 5.68309C8.94186 4.01809 7.46811 3.42184 6.33186 3.42184C5.18436 3.42184 3.71061 4.01809 3.31686 5.69434Z" fill="white"/>
<path d="M6.36572 7.30307C5.74697 7.30307 5.24072 6.79682 5.24072 6.17807C5.24072 5.55932 5.73572 5.05307 6.36572 5.05307H6.37697C6.99572 5.05307 7.50197 5.55932 7.50197 6.17807C7.50197 6.79682 6.99572 7.30307 6.36572 7.30307Z" fill="white"/>
<path d="M20.9683 25.9218C20.1695 25.9218 19.3595 25.6293 18.7295 25.0331C16.6483 23.0643 15.8045 20.9156 16.2995 18.8006C16.8733 16.3368 19.0558 15.2231 20.9683 15.2231C22.8808 15.2231 25.0633 16.3368 25.637 18.8006C26.1208 20.9043 25.277 23.0643 23.1958 25.0218C22.577 25.6293 21.7783 25.9218 20.9683 25.9218ZM20.9683 16.9218C19.8208 16.9218 18.3358 17.5181 17.942 19.1943C17.5033 21.0731 18.7633 22.7493 19.8883 23.8181C20.4845 24.3918 21.4295 24.3918 22.037 23.8181C23.162 22.7493 24.422 21.0843 23.9833 19.2056C23.612 17.5181 22.127 16.9218 20.9683 16.9218Z" fill="white"/>
<path d="M21.0132 20.8031C20.3944 20.8031 19.8882 20.2968 19.8882 19.6781C19.8882 19.0593 20.3832 18.5531 21.0132 18.5531H21.0244C21.6432 18.5531 22.1494 19.0593 22.1494 19.6781C22.1494 20.2968 21.6319 20.8031 21.0132 20.8031Z" fill="white"/>
<path d="M13.6666 22.5468H10.6516C9.34662 22.5468 8.21037 21.7593 7.76037 20.5443C7.29912 19.3293 7.63662 17.9906 8.61537 17.1243L17.6041 9.26059C18.1441 8.78809 18.1554 8.14684 17.9979 7.70809C17.8291 7.26934 17.4016 6.79684 16.6816 6.79684H13.6666C13.2054 6.79684 12.8229 6.41434 12.8229 5.95309C12.8229 5.49184 13.2054 5.10934 13.6666 5.10934H16.6816C17.9866 5.10934 19.1229 5.89684 19.5729 7.11185C20.0341 8.32685 19.6966 9.66559 18.7179 10.5318L9.72912 18.3956C9.18912 18.8681 9.17787 19.5093 9.33537 19.9481C9.50412 20.3868 9.93162 20.8593 10.6516 20.8593H13.6666C14.1279 20.8593 14.5104 21.2418 14.5104 21.7031C14.5104 22.1643 14.1279 22.5468 13.6666 22.5468Z" fill="white"/>
<path d="M13.6666 22.5468H10.6516C9.34662 22.5468 8.21037 21.7593 7.76037 20.5443C7.29912 19.3293 7.63662 17.9906 8.61537 17.1243L17.6041 9.26059C18.1441 8.78809 18.1554 8.14684 17.9979 7.70809C17.8291 7.26934 17.4016 6.79684 16.6816 6.79684H13.6666C13.2054 6.79684 12.8229 6.41434 12.8229 5.95309C12.8229 5.49184 13.2054 5.10934 13.6666 5.10934H16.6816C17.9866 5.10934 19.1229 5.89684 19.5729 7.11185C20.0341 8.32685 19.6966 9.66559 18.7179 10.5318L9.72912 18.3956C9.18912 18.8681 9.17787 19.5093 9.33537 19.9481C9.50412 20.3868 9.93162 20.8593 10.6516 20.8593H13.6666C14.1279 20.8593 14.5104 21.2418 14.5104 21.7031C14.5104 22.1643 14.1279 22.5468 13.6666 22.5468Z" fill="white"/>
</svg>
