<svg width="36" height="36" viewBox="0 0 36 36" fill="none" xmlns="http://www.w3.org/2000/svg">
<path d="M23.9796 17.9557L32.1813 10.6153V25.2122L23.9796 17.9557ZM13.4111 19.1987L16.2913 21.7742C16.7433 22.1697 17.3326 22.4088 17.9767 22.4088H17.9993H18.0167C18.662 22.4088 19.2514 22.1684 19.7087 21.77L19.7047 21.7728L22.5849 19.1974L31.3399 26.9429H4.66011L13.4111 19.1987ZM4.64811 8.87501H31.3559L18.5274 20.3525C18.3831 20.47 18.2046 20.5339 18.0207 20.5338H18.002H17.9847C17.8001 20.5341 17.621 20.4697 17.4766 20.3511L17.478 20.3525L4.64811 8.87501ZM3.82008 10.6139L12.0204 17.9543L3.82008 25.2067V10.6139ZM32.6213 7.26107C32.3013 7.09624 31.9252 7.00009 31.5266 7.00009H4.47877C4.0923 7.00019 3.71114 7.09282 3.36539 7.27068L3.38006 7.26382C2.96614 7.47412 2.61756 7.79948 2.37369 8.20312C2.12982 8.60677 2.00038 9.07262 2 9.54806V26.2671C2.00071 26.9437 2.26195 27.5924 2.7264 28.0709C3.19086 28.5493 3.8206 28.8185 4.47744 28.8192H31.5226C32.1794 28.8185 32.8091 28.5493 33.2736 28.0709C33.7381 27.5924 33.9993 26.9437 34 26.2671V9.54806C34 8.54947 33.4413 7.68413 32.6279 7.26794L32.6133 7.26107H32.6213Z" fill="#1F271B"/>
</svg>
