<svg width="127" height="78" viewBox="0 0 127 78" fill="none" xmlns="http://www.w3.org/2000/svg">
<g clip-path="url(#clip0_2007_49270)">
<path fill-rule="evenodd" clip-rule="evenodd" d="M56.4086 3.8623L61.9168 15.5662L65.0228 9.24897L70.7104 24.4803L74.8778 19.0732L83.1428 29.2829L85.1907 24.6341L94.6665 36.0475L93.1277 37.3251L85.7174 28.3995L83.6513 33.0897L74.9164 22.2994L70.0964 28.5533L64.7714 14.2931L61.8774 20.1792L56.3856 8.51023L49.8216 22.1071L45.0518 19.2456L36.7555 33.1314L35.0386 32.1056L44.3626 16.4998L48.9726 19.2655L56.4086 3.8623Z" fill="black"/>
<path d="M49.897 6.18628C49.897 9.22385 47.4346 11.6863 44.397 11.6863C41.3594 11.6863 38.897 9.22385 38.897 6.18628C38.897 3.14871 41.3594 0.686279 44.397 0.686279C47.4346 0.686279 49.897 3.14871 49.897 6.18628Z" fill="black"/>
<path d="M10.772 45.4863V56.6863H8.18V52.0943H3.092V56.6863H0.5V45.4863H3.092V49.9023H8.18V45.4863H10.772Z" fill="black"/>
<path d="M17.6742 54.8143C18.1222 54.8143 18.5169 54.7503 18.8582 54.6223C19.2102 54.4836 19.5356 54.2703 19.8342 53.9823L21.1622 55.4223C20.3516 56.3503 19.1676 56.8143 17.6102 56.8143C16.6396 56.8143 15.7809 56.6276 15.0342 56.2543C14.2876 55.8703 13.7116 55.3423 13.3062 54.6703C12.9009 53.9983 12.6982 53.2356 12.6982 52.3823C12.6982 51.5396 12.8956 50.7823 13.2902 50.1103C13.6956 49.4276 14.2449 48.8996 14.9382 48.5263C15.6422 48.1423 16.4316 47.9503 17.3062 47.9503C18.1276 47.9503 18.8742 48.1263 19.5462 48.4783C20.2182 48.8196 20.7516 49.321 21.1462 49.9823C21.5516 50.633 21.7542 51.4063 21.7542 52.3023L15.3862 53.5343C15.5676 53.961 15.8502 54.281 16.2342 54.4943C16.6289 54.7076 17.1089 54.8143 17.6742 54.8143ZM17.3062 49.8383C16.6769 49.8383 16.1649 50.041 15.7702 50.4463C15.3756 50.8516 15.1676 51.4116 15.1462 52.1263L19.3382 51.3103C19.2209 50.8623 18.9809 50.505 18.6182 50.2383C18.2556 49.9716 17.8182 49.8383 17.3062 49.8383Z" fill="black"/>
<path d="M31.9757 48.0782V56.6862H29.5917V55.6782C29.2717 56.0515 28.877 56.3342 28.4077 56.5262C27.949 56.7182 27.4583 56.8142 26.9357 56.8142C25.805 56.8142 24.9037 56.4889 24.2317 55.8382C23.5703 55.1875 23.2397 54.2222 23.2397 52.9422V48.0782H25.7357V52.5742C25.7357 53.9609 26.317 54.6542 27.4797 54.6542C28.0877 54.6542 28.573 54.4622 28.9357 54.0782C29.2983 53.6835 29.4797 53.1022 29.4797 52.3342V48.0782H31.9757Z" fill="black"/>
<path d="M39.8609 52.2063C40.3729 52.3663 40.7675 52.6116 41.0449 52.9423C41.3329 53.273 41.4769 53.6676 41.4769 54.1263C41.4769 54.6703 41.2902 55.1503 40.9169 55.5663C40.5435 55.9716 40.0315 56.2863 39.3809 56.5103C38.7302 56.7343 37.9942 56.8463 37.1729 56.8463C36.5009 56.8463 35.8395 56.777 35.1889 56.6383C34.5382 56.4996 33.9355 56.2916 33.3809 56.0143L34.0529 54.2703C34.9595 54.7076 35.9622 54.9263 37.0609 54.9263C37.6475 54.9263 38.1062 54.841 38.4369 54.6703C38.7782 54.489 38.9489 54.2383 38.9489 53.9183C38.9489 53.641 38.8315 53.433 38.5969 53.2943C38.3622 53.145 38.0209 53.0703 37.5729 53.0703H35.8129V51.5183H37.3489C37.7862 51.5183 38.1222 51.449 38.3569 51.3103C38.5915 51.1716 38.7089 50.969 38.7089 50.7023C38.7089 50.425 38.5595 50.2116 38.2608 50.0623C37.9729 49.913 37.5569 49.8383 37.0129 49.8383C36.1809 49.8383 35.2742 50.0356 34.2929 50.4303L33.6849 48.7023C34.8795 48.1796 36.0422 47.9183 37.1729 47.9183C37.9515 47.9183 38.6449 48.0143 39.2529 48.2063C39.8715 48.3983 40.3569 48.681 40.7089 49.0543C41.0609 49.417 41.2369 49.8436 41.2369 50.3343C41.2369 50.7396 41.1142 51.1076 40.8689 51.4383C40.6235 51.7583 40.2875 52.0143 39.8609 52.2063Z" fill="black"/>
<path d="M49.8685 52.1903C50.8818 52.5316 51.3885 53.2142 51.3885 54.2382C51.3885 55.0169 51.0951 55.6195 50.5085 56.0462C49.9218 56.4729 49.0471 56.6862 47.8845 56.6862H43.2925V48.0782H47.6925C48.7698 48.0782 49.6125 48.2755 50.2205 48.6702C50.8285 49.0542 51.1325 49.5982 51.1325 50.3022C51.1325 50.729 51.0205 51.1075 50.7965 51.4382C50.5831 51.7582 50.2738 52.009 49.8685 52.1903ZM45.5805 51.6143H47.4685C48.3431 51.6143 48.7805 51.3049 48.7805 50.6862C48.7805 50.0782 48.3431 49.7743 47.4685 49.7743H45.5805V51.6143ZM47.6765 54.9902C48.5938 54.9902 49.0525 54.6755 49.0525 54.0462C49.0525 53.7155 48.9458 53.4755 48.7325 53.3262C48.5191 53.1662 48.1831 53.0863 47.7245 53.0863H45.5805V54.9902H47.6765Z" fill="black"/>
<path d="M57.5336 54.8143C57.9816 54.8143 58.3763 54.7503 58.7176 54.6223C59.0696 54.4836 59.3949 54.2703 59.6936 53.9823L61.0216 55.4223C60.2109 56.3503 59.0269 56.8143 57.4696 56.8143C56.4989 56.8143 55.6403 56.6276 54.8936 56.2543C54.1469 55.8703 53.5709 55.3423 53.1656 54.6703C52.7603 53.9983 52.5576 53.2356 52.5576 52.3823C52.5576 51.5396 52.7549 50.7823 53.1496 50.1103C53.5549 49.4276 54.1043 48.8996 54.7976 48.5263C55.5016 48.1423 56.2909 47.9503 57.1656 47.9503C57.9869 47.9503 58.7336 48.1263 59.4056 48.4783C60.0776 48.8196 60.6109 49.321 61.0056 49.9823C61.4109 50.633 61.6136 51.4063 61.6136 52.3023L55.2456 53.5343C55.4269 53.961 55.7096 54.281 56.0936 54.4943C56.4883 54.7076 56.9683 54.8143 57.5336 54.8143ZM57.1656 49.8383C56.5363 49.8383 56.0243 50.041 55.6296 50.4463C55.2349 50.8516 55.0269 51.4116 55.0056 52.1263L59.1976 51.3103C59.0803 50.8623 58.8403 50.505 58.4776 50.2383C58.1149 49.9716 57.6776 49.8383 57.1656 49.8383Z" fill="black"/>
<path d="M72.1235 48.0783V55.2463C72.1235 56.825 71.7128 57.9983 70.8915 58.7663C70.0701 59.5343 68.8701 59.9183 67.2915 59.9183C66.4595 59.9183 65.6701 59.817 64.9234 59.6143C64.1768 59.4116 63.5581 59.1183 63.0675 58.7343L64.0594 56.9423C64.4221 57.241 64.8808 57.4756 65.4354 57.6463C65.9901 57.8276 66.5448 57.9183 67.0995 57.9183C67.9635 57.9183 68.5981 57.721 69.0035 57.3263C69.4195 56.9423 69.6275 56.3556 69.6275 55.5663V55.1983C68.9768 55.913 68.0701 56.2703 66.9074 56.2703C66.1181 56.2703 65.3928 56.0996 64.7315 55.7583C64.0808 55.4063 63.5635 54.9156 63.1795 54.2863C62.7955 53.657 62.6035 52.9316 62.6035 52.1103C62.6035 51.289 62.7955 50.5636 63.1795 49.9343C63.5635 49.305 64.0808 48.8196 64.7315 48.4783C65.3928 48.1263 66.1181 47.9503 66.9074 47.9503C68.1554 47.9503 69.1048 48.361 69.7554 49.1823V48.0783H72.1235ZM67.4035 54.2223C68.0648 54.2223 68.6034 54.0303 69.0194 53.6463C69.4461 53.2516 69.6595 52.7396 69.6595 52.1103C69.6595 51.481 69.4461 50.9743 69.0194 50.5903C68.6034 50.1956 68.0648 49.9983 67.4035 49.9983C66.7421 49.9983 66.1981 50.1956 65.7715 50.5903C65.3448 50.9743 65.1314 51.481 65.1314 52.1103C65.1314 52.7396 65.3448 53.2516 65.7715 53.6463C66.1981 54.0303 66.7421 54.2223 67.4035 54.2223Z" fill="black"/>
<path d="M83.2149 48.0783V56.6863H80.8308V55.6943C80.2122 56.441 79.3162 56.8143 78.1429 56.8143C77.3322 56.8143 76.5962 56.633 75.9349 56.2703C75.2842 55.9076 74.7722 55.3903 74.3989 54.7183C74.0255 54.0463 73.8389 53.2676 73.8389 52.3823C73.8389 51.497 74.0255 50.7183 74.3989 50.0463C74.7722 49.3743 75.2842 48.857 75.9349 48.4943C76.5962 48.1316 77.3322 47.9503 78.1429 47.9503C79.2415 47.9503 80.1002 48.297 80.7189 48.9903V48.0783H83.2149ZM78.5749 54.7663C79.2042 54.7663 79.7269 54.553 80.1429 54.1263C80.5589 53.689 80.7669 53.1076 80.7669 52.3823C80.7669 51.657 80.5589 51.081 80.1429 50.6543C79.7269 50.217 79.2042 49.9983 78.5749 49.9983C77.9349 49.9983 77.4069 50.217 76.9909 50.6543C76.5749 51.081 76.3669 51.657 76.3669 52.3823C76.3669 53.1076 76.5749 53.689 76.9909 54.1263C77.4069 54.553 77.9349 54.7663 78.5749 54.7663Z" fill="black"/>
<path d="M85.5737 48.0782H88.0537V51.4382H91.7977V48.0782H94.2937V56.6862H91.7977V53.4702H88.0537V56.6862H85.5737V48.0782Z" fill="black"/>
<path d="M96.6831 48.0782H99.1631V51.4382H102.907V48.0782H105.403V56.6862H102.907V53.4702H99.1631V56.6862H96.6831V48.0782Z" fill="black"/>
<path d="M116.48 48.0783V56.6863H114.096V55.6943C113.478 56.441 112.582 56.8143 111.408 56.8143C110.598 56.8143 109.862 56.633 109.2 56.2703C108.55 55.9076 108.038 55.3903 107.664 54.7183C107.291 54.0463 107.104 53.2676 107.104 52.3823C107.104 51.497 107.291 50.7183 107.664 50.0463C108.038 49.3743 108.55 48.857 109.2 48.4943C109.862 48.1316 110.598 47.9503 111.408 47.9503C112.507 47.9503 113.366 48.297 113.984 48.9903V48.0783H116.48ZM111.84 54.7663C112.47 54.7663 112.992 54.553 113.408 54.1263C113.824 53.689 114.032 53.1076 114.032 52.3823C114.032 51.657 113.824 51.081 113.408 50.6543C112.992 50.217 112.47 49.9983 111.84 49.9983C111.2 49.9983 110.672 50.217 110.256 50.6543C109.84 51.081 109.632 51.657 109.632 52.3823C109.632 53.1076 109.84 53.689 110.256 54.1263C110.672 54.553 111.2 54.7663 111.84 54.7663Z" fill="black"/>
<path d="M126.487 48.0782V56.6862H124.263V54.2222H122.423L120.791 56.6862H118.135L120.103 53.8702C119.506 53.6355 119.047 53.2995 118.727 52.8622C118.418 52.4142 118.263 51.8756 118.263 51.2463C118.263 50.233 118.626 49.4542 119.351 48.9102C120.087 48.3555 121.095 48.0782 122.375 48.0782H126.487ZM122.423 50.1102C121.89 50.1102 121.485 50.2063 121.207 50.3983C120.941 50.5903 120.807 50.8995 120.807 51.3262C120.807 51.7529 120.935 52.0675 121.191 52.2702C121.458 52.4622 121.858 52.5583 122.391 52.5583H124.263V50.1102H122.423Z" fill="black"/>
<path d="M38.6328 65.3743C40.2008 65.3743 41.4221 65.7583 42.2968 66.5263C43.1821 67.2943 43.6248 68.3716 43.6248 69.7583C43.6248 71.0703 43.2248 72.0996 42.4248 72.8463C41.6354 73.593 40.5261 73.9663 39.0968 73.9663C38.6274 73.9663 38.1688 73.9183 37.7208 73.8223C37.2834 73.7263 36.8088 73.5663 36.2968 73.3423V76.6863H33.7368V70.0623C33.7368 68.5583 34.1528 67.401 34.9848 66.5903C35.8274 65.7796 37.0434 65.3743 38.6328 65.3743ZM38.6488 72.0143C39.4061 72.0143 39.9874 71.8223 40.3928 71.4383C40.8088 71.0543 41.0168 70.5103 41.0168 69.8063C41.0168 69.0916 40.8088 68.537 40.3928 68.1423C39.9874 67.7476 39.4221 67.5503 38.6968 67.5503C37.9394 67.5503 37.3474 67.769 36.9208 68.2063C36.5048 68.6436 36.2968 69.257 36.2968 70.0463V71.2943C36.6168 71.5183 36.9794 71.6943 37.3848 71.8223C37.8008 71.9503 38.2221 72.0143 38.6488 72.0143Z" fill="black"/>
<path d="M49.2228 76.8143C48.3161 76.8143 47.5001 76.6276 46.7748 76.2543C46.0601 75.8703 45.5001 75.3423 45.0948 74.6703C44.6895 73.9983 44.4868 73.2356 44.4868 72.3823C44.4868 71.529 44.6895 70.7663 45.0948 70.0943C45.5001 69.4223 46.0601 68.8996 46.7748 68.5263C47.5001 68.1423 48.3161 67.9503 49.2228 67.9503C50.1295 67.9503 50.9401 68.1423 51.6548 68.5263C52.3695 68.8996 52.9295 69.4223 53.3348 70.0943C53.7401 70.7663 53.9428 71.529 53.9428 72.3823C53.9428 73.2356 53.7401 73.9983 53.3348 74.6703C52.9295 75.3423 52.3695 75.8703 51.6548 76.2543C50.9401 76.6276 50.1295 76.8143 49.2228 76.8143ZM49.2228 74.7663C49.8628 74.7663 50.3855 74.553 50.7908 74.1263C51.2068 73.689 51.4148 73.1076 51.4148 72.3823C51.4148 71.657 51.2068 71.081 50.7908 70.6543C50.3855 70.217 49.8628 69.9983 49.2228 69.9983C48.5828 69.9983 48.0548 70.217 47.6388 70.6543C47.2228 71.081 47.0148 71.657 47.0148 72.3823C47.0148 73.1076 47.2228 73.689 47.6388 74.1263C48.0548 74.553 48.5828 74.7663 49.2228 74.7663Z" fill="black"/>
<path d="M59.7556 76.8143C58.8382 76.8143 58.0116 76.6276 57.2756 76.2543C56.5502 75.8703 55.9796 75.3423 55.5636 74.6703C55.1582 73.9983 54.9556 73.2356 54.9556 72.3823C54.9556 71.529 55.1582 70.7663 55.5636 70.0943C55.9796 69.4223 56.5502 68.8996 57.2756 68.5263C58.0116 68.1423 58.8382 67.9503 59.7556 67.9503C60.6622 67.9503 61.4516 68.1423 62.1236 68.5263C62.8062 68.8996 63.3022 69.4383 63.6116 70.1423L61.6756 71.1823C61.2276 70.393 60.5822 69.9983 59.7396 69.9983C59.0889 69.9983 58.5502 70.2116 58.1236 70.6383C57.6969 71.065 57.4836 71.6463 57.4836 72.3823C57.4836 73.1183 57.6969 73.6996 58.1236 74.1263C58.5502 74.553 59.0889 74.7663 59.7396 74.7663C60.5929 74.7663 61.2382 74.3716 61.6756 73.5823L63.6116 74.6383C63.3022 75.321 62.8062 75.8543 62.1236 76.2383C61.4516 76.6223 60.6622 76.8143 59.7556 76.8143Z" fill="black"/>
<path d="M69.1149 76.8143C68.1976 76.8143 67.3709 76.6276 66.6349 76.2543C65.9096 75.8703 65.3389 75.3423 64.9229 74.6703C64.5176 73.9983 64.3149 73.2356 64.3149 72.3823C64.3149 71.529 64.5176 70.7663 64.9229 70.0943C65.3389 69.4223 65.9096 68.8996 66.6349 68.5263C67.3709 68.1423 68.1976 67.9503 69.1149 67.9503C70.0216 67.9503 70.8109 68.1423 71.4829 68.5263C72.1656 68.8996 72.6616 69.4383 72.9709 70.1423L71.0349 71.1823C70.5869 70.393 69.9416 69.9983 69.0989 69.9983C68.4483 69.9983 67.9096 70.2116 67.4829 70.6383C67.0563 71.065 66.8429 71.6463 66.8429 72.3823C66.8429 73.1183 67.0563 73.6996 67.4829 74.1263C67.9096 74.553 68.4483 74.7663 69.0989 74.7663C69.9523 74.7663 70.5976 74.3716 71.0349 73.5823L72.9709 74.6383C72.6616 75.321 72.1656 75.8543 71.4829 76.2383C70.8109 76.6223 70.0216 76.8143 69.1149 76.8143Z" fill="black"/>
<path d="M82.9836 68.0783V76.6863H80.5996V75.6783C80.2796 76.0516 79.8849 76.3343 79.4156 76.5263C78.9569 76.7183 78.4663 76.8143 77.9436 76.8143C76.8129 76.8143 75.9116 76.489 75.2396 75.8383C74.5783 75.1876 74.2476 74.2223 74.2476 72.9423V68.0783H76.7436V72.5743C76.7436 73.961 77.3249 74.6543 78.4876 74.6543C79.0956 74.6543 79.5809 74.4623 79.9436 74.0783C80.3063 73.6836 80.4876 73.1023 80.4876 72.3343V68.0783H82.9836Z" fill="black"/>
<path d="M93.0107 68.0783V76.6863H90.7867V74.2223H88.9467L87.3147 76.6863H84.6587L86.6267 73.8703C86.0294 73.6356 85.5707 73.2996 85.2507 72.8623C84.9414 72.4143 84.7867 71.8756 84.7867 71.2463C84.7867 70.233 85.1494 69.4543 85.8747 68.9103C86.6107 68.3556 87.6187 68.0783 88.8987 68.0783H93.0107ZM88.9467 70.1103C88.4134 70.1103 88.008 70.2063 87.7307 70.3983C87.464 70.5903 87.3307 70.8996 87.3307 71.3263C87.3307 71.753 87.4587 72.0676 87.7147 72.2703C87.9814 72.4623 88.3814 72.5583 88.9147 72.5583H90.7867V70.1103H88.9467Z" fill="black"/>
<path d="M44.0943 37.4363L52.897 33.1863L69.6629 40.5863L90.897 37.4363L69.6629 42.6863L52.897 35.6863L45.397 38.6863L35.897 35.6863L44.0943 37.4363Z" fill="black"/>
</g>
<defs>
<clipPath id="clip0_2007_49270">
<rect width="126" height="77" fill="white" transform="translate(0.5 0.686279)"/>
</clipPath>
</defs>
</svg>
