<svg width="28" height="34" viewBox="0 0 28 34" fill="none" xmlns="http://www.w3.org/2000/svg">
<path d="M25.9076 8.81396C26.6043 10.4634 26.9997 12.2682 26.9997 14.1893V19.5259C26.9997 26.9001 21.2001 32.8576 14.0637 32.8576C12.6138 32.8576 11.2016 32.6054 9.90234 32.159M22.9328 4.48629C20.6167 2.23523 17.491 0.857422 14.0451 0.857422C6.88986 0.857422 1.09037 6.83438 1.09037 14.1891C1.09037 16.8477 0.770216 19.5451 1.33511 22.1649C1.86234 24.6294 3.04864 26.9581 4.72448 28.8016M16.1346 25.2114C15.4944 25.4637 14.7977 25.5995 14.0633 25.5995C10.8246 25.5995 8.18848 22.8827 8.18848 19.5449V14.8293M11.4844 8.7361C12.2564 8.34798 13.1225 8.13452 14.0452 8.13452C17.2839 8.13452 19.9201 10.8513 19.9201 14.1891V19.5257C19.9201 19.8556 19.9012 20.2049 19.8448 20.5154M14.0449 15.0625V18.051" stroke="#F7FBFB" stroke-width="1.5" stroke-linecap="round" stroke-linejoin="round"/>
</svg>
