<svg width="30" height="27" viewBox="0 0 30 27" fill="none" xmlns="http://www.w3.org/2000/svg">
<g clip-path="url(#clip0_1758_47758)">
<path d="M1.20086 14.8364C0.0571871 12.1863 0.282498 9.54773 1.81863 7.05561C3.26063 4.71641 5.41169 3.0964 8.23315 2.04798C12.503 0.460155 16.8289 0.389141 21.1266 1.84457C23.8608 2.77021 26.0302 4.23733 27.6185 6.36838C30.1016 9.70381 29.932 14.0091 27.2018 17.1727C25.214 19.4753 22.7454 21.273 19.44 22.0628C17.4438 22.5404 15.3555 22.661 13.1127 22.4675C10.9024 24.3927 8.13369 25.2896 5.14252 25.9265C4.97162 25.9625 4.80366 25.9906 4.57233 26.0245C4.49594 26.0356 4.49594 26.0356 4.42155 26.0462C4.36806 26.0539 4.36806 26.0539 4.31724 26.0613C3.61697 26.1644 2.98707 25.8934 2.63462 25.2446C2.29091 24.6075 2.3887 23.9296 2.8329 23.3849C3.15672 22.9889 3.38374 22.7261 3.63563 22.4666C4.44115 21.6398 5.05017 20.6406 5.42028 19.5457C4.95572 19.2265 4.69789 19.0424 4.41474 18.8204C2.94182 17.6756 1.86558 16.3794 1.20086 14.8364ZM13.1601 22.4712C13.165 22.4706 13.1668 22.4687 13.1709 22.4652L13.1663 22.4691L13.1601 22.4712ZM13.1127 22.4675C13.0934 22.4658 13.0742 22.4641 13.055 22.4624C13.0989 22.4662 13.1243 22.469 13.1397 22.4704L13.1127 22.4675ZM4.77217 24.141C7.47763 23.565 9.97556 22.7977 12.0188 21.0606C12.3471 20.7901 12.7773 20.6079 13.2101 20.6449C15.2942 20.8295 17.2094 20.7218 19.0241 20.2876C21.9862 19.5799 24.1221 17.9647 25.8409 15.9737C28.0122 13.4576 28.1442 10.1094 26.1757 7.4653C24.8217 5.64861 22.9588 4.3888 20.5528 3.57424C16.6455 2.25105 12.7421 2.31513 8.85669 3.76C6.39028 4.67649 4.56514 6.05104 3.35141 8.01994C2.12491 10.0097 1.95358 12.0161 2.85632 14.1079C3.38985 15.3464 4.27093 16.4073 5.51722 17.3757C5.76946 17.5735 6.00698 17.7429 6.45488 18.0504C6.57664 18.1339 6.57664 18.1339 6.70019 18.2188C6.84319 18.3175 6.84319 18.3175 6.98804 18.4188L7.501 18.7794L7.34761 19.3914C6.93555 21.0355 6.09859 22.5391 4.92377 23.745C4.79575 23.8769 4.67088 24.0152 4.52471 24.1866C4.61837 24.1713 4.69719 24.1568 4.77217 24.141Z" fill="black"/>
<path d="M8.60559 8.02539H21.2455V9.83109H8.60559V8.02539Z" fill="black"/>
<path d="M8.60559 13.4424H19.4398V15.2481H8.60559V13.4424Z" fill="black"/>
</g>
<defs>
<clipPath id="clip0_1758_47758">
<rect width="29.7941" height="26.1827" fill="white" transform="translate(0.0285645 0.47998)"/>
</clipPath>
</defs>
</svg>
