<svg width="30" height="30" viewBox="0 0 30 30" fill="none" xmlns="http://www.w3.org/2000/svg">
<path d="M6.255 23.9978C6.5649 23.1197 7.13961 22.3593 7.8999 21.8215C8.66019 21.2837 9.56863 20.9949 10.5 20.9949C11.4314 20.9949 12.3398 21.2837 13.1001 21.8215C13.8604 22.3593 14.4351 23.1197 14.745 23.9978H30V26.9971H14.745C14.4351 27.8751 13.8604 28.6355 13.1001 29.1733C12.3398 29.7112 11.4314 30 10.5 30C9.56863 30 8.66019 29.7112 7.8999 29.1733C7.13961 28.6355 6.5649 27.8751 6.255 26.9971H0V23.9978H6.255ZM15.255 13.5004C15.5649 12.6223 16.1396 11.8619 16.8999 11.3241C17.6602 10.7863 18.5686 10.4974 19.5 10.4974C20.4314 10.4974 21.3398 10.7863 22.1001 11.3241C22.8604 11.8619 23.4351 12.6223 23.745 13.5004H30V16.4996H23.745C23.4351 17.3777 22.8604 18.1381 22.1001 18.6759C21.3398 19.2138 20.4314 19.5026 19.5 19.5026C18.5686 19.5026 17.6602 19.2138 16.8999 18.6759C16.1396 18.1381 15.5649 17.3777 15.255 16.4996H0V13.5004H15.255ZM6.255 3.00294C6.5649 2.12486 7.13961 1.36449 7.8999 0.826658C8.66019 0.288823 9.56863 0 10.5 0C11.4314 0 12.3398 0.288823 13.1001 0.826658C13.8604 1.36449 14.4351 2.12486 14.745 3.00294H30V6.0022H14.745C14.4351 6.88029 13.8604 7.64065 13.1001 8.17849C12.3398 8.71632 11.4314 9.00515 10.5 9.00515C9.56863 9.00515 8.66019 8.71632 7.8999 8.17849C7.13961 7.64065 6.5649 6.88029 6.255 6.0022H0V3.00294H6.255ZM10.5 6.0022C10.8978 6.0022 11.2794 5.84421 11.5607 5.56297C11.842 5.28174 12 4.9003 12 4.50257C12 4.10484 11.842 3.72341 11.5607 3.44217C11.2794 3.16094 10.8978 3.00294 10.5 3.00294C10.1022 3.00294 9.72065 3.16094 9.43934 3.44217C9.15804 3.72341 9 4.10484 9 4.50257C9 4.9003 9.15804 5.28174 9.43934 5.56297C9.72065 5.84421 10.1022 6.0022 10.5 6.0022ZM19.5 16.4996C19.8978 16.4996 20.2794 16.3416 20.5607 16.0604C20.842 15.7792 21 15.3977 21 15C21 14.6023 20.842 14.2208 20.5607 13.9396C20.2794 13.6584 19.8978 13.5004 19.5 13.5004C19.1022 13.5004 18.7206 13.6584 18.4393 13.9396C18.158 14.2208 18 14.6023 18 15C18 15.3977 18.158 15.7792 18.4393 16.0604C18.7206 16.3416 19.1022 16.4996 19.5 16.4996ZM10.5 26.9971C10.8978 26.9971 11.2794 26.8391 11.5607 26.5578C11.842 26.2766 12 25.8952 12 25.4974C12 25.0997 11.842 24.7183 11.5607 24.437C11.2794 24.1558 10.8978 23.9978 10.5 23.9978C10.1022 23.9978 9.72065 24.1558 9.43934 24.437C9.15804 24.7183 9 25.0997 9 25.4974C9 25.8952 9.15804 26.2766 9.43934 26.5578C9.72065 26.8391 10.1022 26.9971 10.5 26.9971Z" fill="#1F271B"/>
</svg>
